<?xml version="1.0" encoding="UTF-8"?>
<svg version="1.1" xmlns="http://www.w3.org/2000/svg" width="50" height="50">
<path d="M0 0 C1.69154647 -0.01653294 3.38302383 -0.04378815 5.07421875 -0.08203125 C7.51892155 -0.13700599 9.96198756 -0.15870539 12.40722656 -0.17333984 C13.1574408 -0.19600922 13.90765503 -0.21867859 14.68060303 -0.24203491 C18.65811224 -0.2261545 21.20518 0.28542568 24.25976562 2.7578125 C29.11568533 7.71742729 28.0907936 12.95340301 28.17285156 19.60009766 C28.22892578 21.29972656 28.22892578 21.29972656 28.28613281 23.03369141 C28.38508759 32.41240487 28.38508759 32.41240487 25.42675781 36.06494141 C21.15834552 39.77522549 17.32411932 40.57899053 11.79785156 41.35009766 C12.29285156 43.82509766 12.29285156 43.82509766 12.79785156 46.35009766 C11.04785156 47.03759766 11.04785156 47.03759766 8.79785156 47.35009766 C6.54785156 46.03759766 6.54785156 46.03759766 4.79785156 44.35009766 C4.79785156 43.69009766 4.79785156 43.03009766 4.79785156 42.35009766 C3.31285156 41.85509766 3.31285156 41.85509766 1.79785156 41.35009766 C0.11035156 38.78759766 0.11035156 38.78759766 -1.20214844 36.35009766 C0.17430815 34.811705 1.57480188 33.29479185 2.98535156 31.78759766 C3.76265625 30.94068359 4.53996094 30.09376953 5.34082031 29.22119141 C7.79785156 27.35009766 7.79785156 27.35009766 10.59863281 27.57275391 C11.324375 27.82927734 12.05011719 28.08580078 12.79785156 28.35009766 C12.29181164 30.51884017 11.79801343 32.34977392 10.79785156 34.35009766 C12.05597656 34.26759766 13.31410156 34.18509766 14.61035156 34.10009766 C15.31804688 34.05369141 16.02574219 34.00728516 16.75488281 33.95947266 C18.88686874 33.47049954 18.88686874 33.47049954 20.53222656 31.89697266 C22.48767888 27.96192664 22.2713014 24.18368728 22.23535156 19.85009766 C22.25533203 18.99544922 22.2753125 18.14080078 22.29589844 17.26025391 C22.29525391 16.43396484 22.29460938 15.60767578 22.29394531 14.75634766 C22.29579834 14.00675781 22.29765137 13.25716797 22.29956055 12.48486328 C21.56744523 9.3697215 20.364035 8.23372706 17.79785156 6.35009766 C14.58124117 5.7352122 14.58124117 5.7352122 10.98535156 5.81884766 C10.00924927 5.8131073 10.00924927 5.8131073 9.01342773 5.80725098 C7.64174852 5.8045369 6.27001712 5.81186313 4.8984375 5.82861328 C2.80383471 5.85003646 0.71266072 5.82880129 -1.38183594 5.80322266 C-2.71778097 5.80586603 -4.05372389 5.81099122 -5.38964844 5.81884766 C-6.60007812 5.82335937 -7.81050781 5.82787109 -9.05761719 5.83251953 C-12.26251183 6.11622087 -12.26251183 6.11622087 -14.59692383 8.10791016 C-16.3810678 10.60001331 -16.70571805 11.73219944 -16.69824219 14.75634766 C-16.69888672 15.58263672 -16.69953125 16.40892578 -16.70019531 17.26025391 C-16.68021484 18.11490234 -16.66023438 18.96955078 -16.63964844 19.85009766 C-16.6502832 21.13207031 -16.6502832 21.13207031 -16.66113281 22.43994141 C-16.62454725 26.04784084 -16.55778335 28.6516821 -14.90527344 31.89697266 C-12.27527971 34.14091226 -9.56028854 34.09665312 -6.20214844 34.35009766 C-6.20214844 36.33009766 -6.20214844 38.31009766 -6.20214844 40.35009766 C-12.91350508 40.18604227 -16.47011418 39.20043277 -21.20214844 34.35009766 C-23.30253918 30.14931617 -22.52016583 24.71568857 -22.57714844 20.10009766 C-22.61453125 18.96701172 -22.65191406 17.83392578 -22.69042969 16.66650391 C-22.78938191 7.28803214 -22.78938191 7.28803214 -19.80371094 3.61572266 C-14.24251467 -1.22736118 -7.0445962 0.05045491 0 0 Z " fill="#FFFFFF" transform="translate(22.2021484375,2.64990234375)"/>
</svg>
